<svg xmlns="http://www.w3.org/2000/svg" viewBox="0 0 1920 1080"><g transform="
          rotate(25 960 540) 
          translate(-631.3239755926443 -355.1197362708624)
          scale(1.6576291412423378)
        "><rect width="1920" height="1080" fill="rgb(92, 137, 232)"></rect><g transform="translate(0, 0)"><path fill="rgb(87, 180, 226)" fill-opacity="1" d="M0,529.415L80,525.113C160,520.81,320,512.206,480,510.872C640,509.538,800,515.475,960,516.142C1120,516.81,1280,512.208,1440,454.775C1600,397.341,1760,287.075,1840,231.942L1920,176.809L1920,1080L1840,1080C1760,1080,1600,1080,1440,1080C1280,1080,1120,1080,960,1080C800,1080,640,1080,480,1080C320,1080,160,1080,80,1080L0,1080Z"></path></g><g transform="translate(0, 540)"><path fill="rgb(81, 223, 220)" fill-opacity="1" d="M0,451.731L80,377.824C160,303.917,320,156.103,480,147.721C640,139.338,800,270.387,960,303.028C1120,335.67,1280,269.905,1440,209.033C1600,148.161,1760,92.183,1840,64.194L1920,36.204L1920,540L1840,540C1760,540,1600,540,1440,540C1280,540,1120,540,960,540C800,540,640,540,480,540C320,540,160,540,80,540L0,540Z"></path></g></g></svg>