<svg xmlns="http://www.w3.org/2000/svg" viewBox="0 0 1920 1080"><g transform="
          rotate(319 960 540) 
          translate(-884.1952731576603 -497.3598411511839)
          scale(1.9210367428725628)
        "><rect width="1920" height="1080" fill="rgb(147, 90, 202)"></rect><g transform="translate(0, 0)"><path fill="rgb(136, 99, 208)" fill-opacity="1" d="M0,211.766L26.667,210.045C53.333,208.324,106.667,204.882,160,204.349C213.333,203.815,266.667,206.19,320,206.457C373.333,206.724,426.667,204.883,480,181.91C533.333,158.936,586.667,114.83,640,111.105C693.333,107.38,746.667,144.036,800,132.802C853.333,121.567,906.667,62.441,960,59.088C1013.333,55.735,1066.667,108.155,1120,121.211C1173.333,134.268,1226.667,107.962,1280,83.613C1333.333,59.265,1386.667,36.873,1440,48.431C1493.333,59.99,1546.667,105.497,1600,113.703C1653.333,121.909,1706.667,92.812,1760,78.248C1813.333,63.685,1866.667,63.654,1893.333,63.639L1920,63.624L1920,1080L1893.333,1080C1866.667,1080,1813.333,1080,1760,1080C1706.667,1080,1653.333,1080,1600,1080C1546.667,1080,1493.333,1080,1440,1080C1386.667,1080,1333.333,1080,1280,1080C1226.667,1080,1173.333,1080,1120,1080C1066.667,1080,1013.333,1080,960,1080C906.667,1080,853.333,1080,800,1080C746.667,1080,693.333,1080,640,1080C586.667,1080,533.333,1080,480,1080C426.667,1080,373.333,1080,320,1080C266.667,1080,213.333,1080,160,1080C106.667,1080,53.333,1080,26.667,1080L0,1080Z"></path></g><g transform="translate(0, 216)"><path fill="rgb(125, 109, 214)" fill-opacity="1" d="M0,190.378L26.667,191.944C53.333,193.51,106.667,196.643,160,170.805C213.333,144.967,266.667,90.158,320,67.574C373.333,44.99,426.667,54.631,480,75.764C533.333,96.896,586.667,129.519,640,152.598C693.333,175.676,746.667,189.21,800,180.309C853.333,171.407,906.667,140.071,960,108.188C1013.333,76.304,1066.667,43.874,1120,26.019C1173.333,8.164,1226.667,4.885,1280,24.647C1333.333,44.41,1386.667,87.215,1440,100.669C1493.333,114.124,1546.667,98.228,1600,81.706C1653.333,65.185,1706.667,48.037,1760,43.353C1813.333,38.669,1866.667,46.447,1893.333,50.337L1920,54.226L1920,864L1893.333,864C1866.667,864,1813.333,864,1760,864C1706.667,864,1653.333,864,1600,864C1546.667,864,1493.333,864,1440,864C1386.667,864,1333.333,864,1280,864C1226.667,864,1173.333,864,1120,864C1066.667,864,1013.333,864,960,864C906.667,864,853.333,864,800,864C746.667,864,693.333,864,640,864C586.667,864,533.333,864,480,864C426.667,864,373.333,864,320,864C266.667,864,213.333,864,160,864C106.667,864,53.333,864,26.667,864L0,864Z"></path></g><g transform="translate(0, 432)"><path fill="rgb(114, 118, 220)" fill-opacity="1" d="M0,63.996L26.667,81.462C53.333,98.928,106.667,133.861,160,157.65C213.333,181.439,266.667,194.085,320,201.671C373.333,209.256,426.667,211.781,480,197.174C533.333,182.567,586.667,150.829,640,125.577C693.333,100.325,746.667,81.56,800,65.182C853.333,48.804,906.667,34.813,960,55.484C1013.333,76.155,1066.667,131.487,1120,163.3C1173.333,195.113,1226.667,203.408,1280,207.849C1333.333,212.29,1386.667,212.879,1440,200.569C1493.333,188.259,1546.667,163.051,1600,147.31C1653.333,131.569,1706.667,125.295,1760,112.475C1813.333,99.655,1866.667,80.29,1893.333,70.607L1920,60.925L1920,648L1893.333,648C1866.667,648,1813.333,648,1760,648C1706.667,648,1653.333,648,1600,648C1546.667,648,1493.333,648,1440,648C1386.667,648,1333.333,648,1280,648C1226.667,648,1173.333,648,1120,648C1066.667,648,1013.333,648,960,648C906.667,648,853.333,648,800,648C746.667,648,693.333,648,640,648C586.667,648,533.333,648,480,648C426.667,648,373.333,648,320,648C266.667,648,213.333,648,160,648C106.667,648,53.333,648,26.667,648L0,648Z"></path></g><g transform="translate(0, 648)"><path fill="rgb(103, 128, 226)" fill-opacity="1" d="M0,210.796L26.667,206.651C53.333,202.506,106.667,194.215,160,191.858C213.333,189.501,266.667,193.078,320,188.928C373.333,184.778,426.667,172.902,480,143.273C533.333,113.645,586.667,66.265,640,71.939C693.333,77.613,746.667,136.34,800,149.683C853.333,163.026,906.667,130.984,960,103.738C1013.333,76.492,1066.667,54.041,1120,53.578C1173.333,53.116,1226.667,74.641,1280,104.636C1333.333,134.631,1386.667,173.096,1440,175.404C1493.333,177.711,1546.667,143.859,1600,123.912C1653.333,103.964,1706.667,97.92,1760,81.858C1813.333,65.796,1866.667,39.716,1893.333,26.676L1920,13.636L1920,432L1893.333,432C1866.667,432,1813.333,432,1760,432C1706.667,432,1653.333,432,1600,432C1546.667,432,1493.333,432,1440,432C1386.667,432,1333.333,432,1280,432C1226.667,432,1173.333,432,1120,432C1066.667,432,1013.333,432,960,432C906.667,432,853.333,432,800,432C746.667,432,693.333,432,640,432C586.667,432,533.333,432,480,432C426.667,432,373.333,432,320,432C266.667,432,213.333,432,160,432C106.667,432,53.333,432,26.667,432L0,432Z"></path></g><g transform="translate(0, 864)"><path fill="rgb(92, 137, 232)" fill-opacity="1" d="M0,11.782L26.667,23.834C53.333,35.885,106.667,59.988,160,92.654C213.333,125.321,266.667,166.55,320,180.531C373.333,194.511,426.667,181.241,480,151.53C533.333,121.819,586.667,75.666,640,81.344C693.333,87.023,746.667,144.534,800,153.517C853.333,162.501,906.667,122.957,960,113.69C1013.333,104.422,1066.667,125.43,1120,126.725C1173.333,128.019,1226.667,109.599,1280,111.763C1333.333,113.926,1386.667,136.673,1440,147.738C1493.333,158.803,1546.667,158.186,1600,147.573C1653.333,136.96,1706.667,116.352,1760,110.405C1813.333,104.458,1866.667,113.173,1893.333,117.531L1920,121.888L1920,216L1893.333,216C1866.667,216,1813.333,216,1760,216C1706.667,216,1653.333,216,1600,216C1546.667,216,1493.333,216,1440,216C1386.667,216,1333.333,216,1280,216C1226.667,216,1173.333,216,1120,216C1066.667,216,1013.333,216,960,216C906.667,216,853.333,216,800,216C746.667,216,693.333,216,640,216C586.667,216,533.333,216,480,216C426.667,216,373.333,216,320,216C266.667,216,213.333,216,160,216C106.667,216,53.333,216,26.667,216L0,216Z"></path></g></g></svg>